<svg xmlns="http://www.w3.org/2000/svg" width="1024" height="1024" viewBox="0 0 1024 1024" version="1.1"><path d="M 472 1.115 C 244.228 19.275, 55.431 186.005, 10.054 409.068 C -1.511 465.921, -3.298 529.204, 5.050 586.339 C 17.091 668.761, 48.726 746.227, 97.857 813.600 C 127.078 853.671, 166.556 893.633, 205.454 922.517 C 270.018 970.460, 345.535 1003.211, 422 1016.429 C 472.509 1025.160, 526.220 1026.560, 575.500 1020.428 C 673.747 1008.205, 764.367 968.605, 842.046 903.949 C 858.056 890.624, 890.622 858.056, 903.993 842 C 947.399 789.876, 978.927 733.153, 999.318 670.500 C 1011.089 634.330, 1019.357 593.657, 1022.085 558.500 C 1022.682 550.800, 1023.582 543.719, 1024.085 542.764 C 1025.202 540.644, 1025.322 479.683, 1024.208 480.371 C 1023.772 480.641, 1022.878 474.255, 1022.220 466.180 C 1016.225 392.559, 991.423 315.464, 952.992 250.988 C 866.774 106.340, 717.931 14.011, 550.050 1.039 C 534.530 -0.160, 487.420 -0.114, 472 1.115 M 477.500 11.140 C 372.432 18.033, 273.581 57.813, 190 126.836 C 175.190 139.066, 139.066 175.190, 126.836 190 C 64.024 266.060, 25.885 353.342, 14.100 448 C -3.434 588.831, 36.070 724.089, 126.836 834 C 139.066 848.810, 175.190 884.934, 190 897.164 C 282.782 973.785, 393.615 1014, 512 1014 C 630.385 1014, 741.218 973.785, 834 897.164 C 848.810 884.934, 884.934 848.810, 897.164 834 C 973.810 741.188, 1014 630.424, 1014 512 C 1014 393.576, 973.810 282.812, 897.164 190 C 884.934 175.190, 848.810 139.066, 834 126.836 C 732.155 42.730, 608.360 2.555, 477.500 11.140 M 717.155 222.750 C 713.383 230.313, 673.503 311.650, 628.534 403.500 C 538.253 587.898, 545.517 574.549, 531.763 581.329 C 521.733 586.274, 514.293 588.113, 501.856 588.725 C 489.293 589.343, 479.996 587.642, 467.225 582.392 C 457.039 578.203, 452.295 575.567, 429.500 561.427 C 406.727 547.301, 370.929 526.782, 362.312 522.916 C 329.749 508.305, 296.872 505.816, 265.829 515.611 C 230.289 526.824, 199.113 558.286, 186.476 595.694 C 183.708 603.887, 183.708 603.887, 190.904 612.694 C 194.863 617.537, 204.716 629.688, 212.801 639.695 C 220.885 649.703, 228.023 657.915, 228.663 657.945 C 229.302 657.975, 230.988 654.962, 232.408 651.250 C 242.091 625.948, 261.429 606.405, 284.695 598.408 C 301.915 592.489, 316.645 592.861, 337.410 599.737 C 355.988 605.888, 373.557 615.506, 412 640.569 C 435.688 656.012, 466.152 669.322, 484.232 672.128 C 488.229 672.748, 492.423 673.536, 493.552 673.878 C 495.429 674.447, 490.836 684.212, 439.399 789 C 408.487 851.975, 383.516 903.842, 383.908 904.261 C 384.300 904.679, 404.289 904.904, 428.327 904.761 L 472.032 904.500 642.554 557.715 C 736.340 366.984, 812.807 210.496, 812.479 209.965 C 812.110 209.369, 795.108 209, 767.948 209 L 724.013 209 717.155 222.750 M 0.445 512 C 0.445 529.325, 0.582 536.413, 0.748 527.750 C 0.915 519.087, 0.915 504.913, 0.748 496.250 C 0.582 487.587, 0.445 494.675, 0.445 512" stroke="none" fill="#93daa3" fill-rule="evenodd"/><path d="M 477.500 11.140 C 372.432 18.033, 273.581 57.813, 190 126.836 C 175.190 139.066, 139.066 175.190, 126.836 190 C 64.024 266.060, 25.885 353.342, 14.100 448 C -3.434 588.831, 36.070 724.089, 126.836 834 C 139.066 848.810, 175.190 884.934, 190 897.164 C 282.782 973.785, 393.615 1014, 512 1014 C 630.385 1014, 741.218 973.785, 834 897.164 C 848.810 884.934, 884.934 848.810, 897.164 834 C 973.810 741.188, 1014 630.424, 1014 512 C 1014 393.576, 973.810 282.812, 897.164 190 C 884.934 175.190, 848.810 139.066, 834 126.836 C 732.155 42.730, 608.360 2.555, 477.500 11.140 M 717.155 222.750 C 713.383 230.313, 673.503 311.650, 628.534 403.500 C 538.253 587.898, 545.517 574.549, 531.763 581.329 C 521.733 586.274, 514.293 588.113, 501.856 588.725 C 489.293 589.343, 479.996 587.642, 467.225 582.392 C 457.039 578.203, 452.295 575.567, 429.500 561.427 C 406.727 547.301, 370.929 526.782, 362.312 522.916 C 329.749 508.305, 296.872 505.816, 265.829 515.611 C 230.289 526.824, 199.113 558.286, 186.476 595.694 C 183.708 603.887, 183.708 603.887, 190.904 612.694 C 194.863 617.537, 204.716 629.688, 212.801 639.695 C 220.885 649.703, 228.023 657.915, 228.663 657.945 C 229.302 657.975, 230.988 654.962, 232.408 651.250 C 242.091 625.948, 261.429 606.405, 284.695 598.408 C 301.915 592.489, 316.645 592.861, 337.410 599.737 C 355.988 605.888, 373.557 615.506, 412 640.569 C 435.688 656.012, 466.152 669.322, 484.232 672.128 C 488.229 672.748, 492.423 673.536, 493.552 673.878 C 495.429 674.447, 490.836 684.212, 439.399 789 C 408.487 851.975, 383.516 903.842, 383.908 904.261 C 384.300 904.679, 404.289 904.904, 428.327 904.761 L 472.032 904.500 642.554 557.715 C 736.340 366.984, 812.807 210.496, 812.479 209.965 C 812.110 209.369, 795.108 209, 767.948 209 L 724.013 209 717.155 222.750" stroke="none" fill="#24242c" fill-rule="evenodd"/></svg>
